<?xml version="1.0" encoding="utf-8"?>
<!-- Generated by IcoMoon.io -->
<!DOCTYPE svg PUBLIC "-//W3C//DTD SVG 1.1//EN" "http://www.w3.org/Graphics/SVG/1.1/DTD/svg11.dtd">
<svg version="1.1" xmlns="http://www.w3.org/2000/svg" xmlns:xlink="http://www.w3.org/1999/xlink" width="28" height="28" viewBox="0 0 28 28">
<g id="icomoon-ignore">
</g>
<path d="M22.937 5.938q0.438 0.438 0.75 1.188t0.313 1.375v18q0 0.625-0.438 1.062t-1.062 0.438h-21q-0.625 0-1.062-0.438t-0.438-1.062v-25q0-0.625 0.438-1.062t1.062-0.438h14q0.625 0 1.375 0.313t1.188 0.75zM16 2.125v5.875h5.875q-0.156-0.453-0.344-0.641l-4.891-4.891q-0.187-0.187-0.641-0.344zM22 26v-16h-6.5q-0.625 0-1.062-0.438t-0.438-1.062v-6.5h-12v24h20zM13.969 16.734q0.516 0.406 1.312 0.875 0.922-0.109 1.828-0.109 2.297 0 2.766 0.766 0.25 0.344 0.031 0.812 0 0.016-0.016 0.031l-0.031 0.031v0.016q-0.094 0.594-1.109 0.594-0.75 0-1.797-0.313t-2.031-0.828q-3.453 0.375-6.125 1.297-2.391 4.094-3.781 4.094-0.234 0-0.438-0.109l-0.375-0.187q-0.016-0.016-0.094-0.078-0.156-0.156-0.094-0.562 0.141-0.625 0.875-1.43t2.063-1.508q0.219-0.141 0.359 0.094 0.031 0.031 0.031 0.063 0.812-1.328 1.672-3.078 1.062-2.125 1.625-4.094-0.375-1.281-0.477-2.492t0.102-1.992q0.172-0.625 0.656-0.625h0.344q0.359 0 0.547 0.234 0.281 0.328 0.141 1.062-0.031 0.094-0.063 0.125 0.016 0.047 0.016 0.125v0.469q-0.031 1.922-0.219 3 0.859 2.562 2.281 3.719zM4.969 23.156q0.812-0.375 2.141-2.469-0.797 0.625-1.367 1.313t-0.773 1.156zM11.188 8.781q-0.234 0.656-0.031 2.063 0.016-0.109 0.109-0.688 0-0.047 0.109-0.672 0.016-0.063 0.063-0.125-0.016-0.016-0.016-0.031t-0.008-0.023-0.008-0.023q-0.016-0.344-0.203-0.562 0 0.016-0.016 0.031v0.031zM9.25 19.109q2.109-0.844 4.438-1.266-0.031-0.016-0.203-0.148t-0.25-0.211q-1.188-1.047-1.984-2.75-0.422 1.344-1.297 3.078-0.469 0.875-0.703 1.297zM19.344 18.859q-0.375-0.375-2.188-0.375 1.188 0.438 1.937 0.438 0.219 0 0.281-0.016 0-0.016-0.031-0.047z" fill="#000000"></path>
</svg>
