<?xml version="1.0" standalone="no"?>
<!DOCTYPE svg PUBLIC "-//W3C//DTD SVG 20010904//EN"
 "http://www.w3.org/TR/2001/REC-SVG-20010904/DTD/svg10.dtd">
<svg version="1.0" xmlns="http://www.w3.org/2000/svg"
 width="340.000000pt" height="340.000000pt" viewBox="0 0 340.000000 340.000000"
 preserveAspectRatio="xMidYMid meet">
<metadata>
Created by potrace 1.11, written by Peter Selinger 2001-2013
</metadata>
<g transform="translate(0.000000,340.000000) scale(0.100000,-0.100000)"
fill="#000000" stroke="none">
<path d="M0 1700 l0 -1700 1700 0 1700 0 0 1700 0 1700 -1700 0 -1700 0 0
-1700z m2577 938 c117 -43 221 -136 279 -250 102 -202 54 -510 -126 -803 -217
-353 -616 -681 -1025 -843 -220 -87 -373 -116 -585 -110 -135 4 -165 8 -234
32 -134 46 -225 111 -289 208 -58 89 -79 159 -85 285 -2 62 -2 113 1 113 3 0
15 -19 25 -42 38 -86 138 -158 256 -187 70 -17 246 -15 346 4 486 94 1049 490
1309 923 165 276 184 514 51 666 l-33 37 29 -7 c16 -4 53 -15 81 -26z m-405
-51 c113 -55 166 -156 155 -292 -4 -38 -12 -87 -18 -107 l-12 -37 -17 32 c-83
159 -466 63 -830 -209 -247 -184 -433 -417 -456 -571 -8 -55 9 -117 39 -139
21 -15 19 -16 -44 -11 -129 11 -215 60 -264 148 -28 50 -30 62 -29 149 0 78 5
108 28 170 112 299 427 610 798 785 189 89 297 115 468 112 114 -2 130 -5 182
-30z"/>
</g>
</svg>
