<?xml version="1.0" encoding="UTF-8" ?>
<!DOCTYPE svg PUBLIC "-//W3C//DTD SVG 1.1//EN" "http://www.w3.org/Graphics/SVG/1.1/DTD/svg11.dtd">
<svg width="340pt" height="340pt" viewBox="0 0 340 340" version="1.1" xmlns="http://www.w3.org/2000/svg">
<path fill="#ededed" d=" M 0.00 0.00 L 57.60 0.00 C 45.52 0.78 33.42 4.26 23.72 11.72 C 9.20 22.18 0.75 39.70 0.00 57.43 L 0.00 0.00 Z" />
<path fill="#186ca4" d=" M 57.60 0.00 L 283.04 0.00 C 287.32 0.83 291.76 0.79 295.97 2.06 C 313.08 6.30 327.94 18.81 334.86 35.06 C 338.12 42.10 339.33 49.80 340.00 57.47 L 340.00 166.48 C 332.01 166.22 324.00 166.78 316.03 165.93 C 307.69 166.37 299.31 166.75 290.97 166.19 C 288.24 165.56 288.22 162.18 288.71 159.99 C 289.91 154.58 289.02 148.95 290.63 143.61 C 291.40 141.51 290.81 139.40 290.10 137.38 C 292.05 123.40 290.54 108.35 282.68 96.31 C 274.74 83.62 260.71 75.97 246.34 73.01 C 254.03 78.99 258.72 88.31 259.12 98.04 C 259.99 114.69 252.99 130.56 244.53 144.51 C 239.90 151.99 234.63 159.07 228.87 165.71 C 227.31 165.09 225.75 164.32 224.04 164.40 C 195.03 164.47 166.02 164.40 137.01 164.44 C 132.99 164.50 128.97 164.49 124.96 164.13 C 127.55 160.07 130.96 156.68 134.27 153.23 C 135.20 152.44 135.25 151.18 135.53 150.09 C 151.39 136.54 169.44 125.28 189.13 118.23 C 198.94 115.04 209.71 112.10 219.94 115.06 C 224.84 116.38 228.16 120.60 229.59 125.30 C 232.97 115.22 235.11 103.66 230.31 93.67 C 226.14 84.70 216.58 79.59 207.12 78.20 C 191.02 75.84 174.78 80.01 159.88 85.91 C 134.48 96.36 111.66 112.93 93.52 133.52 C 87.91 139.88 83.12 146.89 78.62 154.06 C 76.88 155.67 75.24 157.40 73.80 159.28 C 52.22 159.75 30.61 159.28 9.03 159.51 C 6.01 159.57 3.00 159.39 0.00 159.08 L 0.00 57.43 C 0.75 39.70 9.20 22.18 23.72 11.72 C 33.42 4.26 45.52 0.78 57.60 0.00 Z" />
<path fill="#ededed" d=" M 283.04 0.00 L 340.00 0.00 L 340.00 57.47 C 339.33 49.80 338.12 42.10 334.86 35.06 C 327.94 18.81 313.08 6.30 295.97 2.06 C 291.76 0.79 287.32 0.83 283.04 0.00 Z" />
<path fill="#ededed" d=" M 246.34 73.01 C 260.71 75.97 274.74 83.62 282.68 96.31 C 290.54 108.35 292.05 123.40 290.10 137.38 C 285.61 164.63 270.29 188.83 252.04 209.03 C 228.64 234.47 199.43 254.70 167.10 267.01 C 144.63 275.40 119.96 280.08 96.11 275.49 C 80.74 272.51 65.86 263.90 58.00 250.01 C 51.40 238.76 50.12 225.18 51.70 212.43 C 54.64 223.16 63.72 231.28 74.14 234.59 C 90.17 239.84 107.55 237.66 123.59 233.56 C 154.93 225.05 183.46 207.96 207.88 186.79 C 215.33 180.24 222.34 173.18 228.87 165.71 C 234.63 159.07 239.90 151.99 244.53 144.51 C 252.99 130.56 259.99 114.69 259.12 98.04 C 258.72 88.31 254.03 78.99 246.34 73.01 Z" />
<path fill="#74a3c3" d=" M 159.88 85.91 C 174.78 80.01 191.02 75.84 207.12 78.20 C 216.58 79.59 226.14 84.70 230.31 93.67 C 235.11 103.66 232.97 115.22 229.59 125.30 C 228.16 120.60 224.84 116.38 219.94 115.06 C 209.71 112.10 198.94 115.04 189.13 118.23 C 169.44 125.28 151.39 136.54 135.53 150.09 C 123.82 160.18 112.77 171.45 105.06 184.97 C 101.47 191.52 98.24 198.98 99.55 206.62 C 100.14 210.31 102.82 213.07 105.59 215.35 C 94.13 215.29 81.10 212.87 73.95 202.99 C 68.40 195.97 68.68 186.59 69.44 178.17 C 70.90 169.63 74.41 161.58 78.62 154.06 C 83.12 146.89 87.91 139.88 93.52 133.52 C 111.66 112.93 134.48 96.36 159.88 85.91 Z" />
<path fill="#13537f" d=" M 290.10 137.38 C 290.81 139.40 291.40 141.51 290.63 143.61 C 289.02 148.95 289.91 154.58 288.71 159.99 C 288.22 162.18 288.24 165.56 290.97 166.19 C 299.31 166.75 307.69 166.37 316.03 165.93 C 324.00 166.78 332.01 166.22 340.00 166.48 L 340.00 284.18 C 338.96 294.21 336.32 304.23 330.75 312.75 C 321.36 327.82 304.61 338.10 286.89 339.47 C 285.62 339.61 284.36 339.79 283.11 340.00 L 56.99 340.00 C 47.50 339.17 37.97 337.12 29.69 332.21 C 14.87 323.94 4.18 308.82 1.18 292.14 C 0.79 289.36 0.47 286.58 0.00 283.82 L 0.00 159.08 C 3.00 159.39 6.01 159.57 9.03 159.51 C 30.61 159.28 52.22 159.75 73.80 159.28 C 75.24 157.40 76.88 155.67 78.62 154.06 C 74.41 161.58 70.90 169.63 69.44 178.17 C 68.68 186.59 68.40 195.97 73.95 202.99 C 81.10 212.87 94.13 215.29 105.59 215.35 C 102.82 213.07 100.14 210.31 99.55 206.62 C 98.24 198.98 101.47 191.52 105.06 184.97 C 112.77 171.45 123.82 160.18 135.53 150.09 C 135.25 151.18 135.20 152.44 134.27 153.23 C 130.96 156.68 127.55 160.07 124.96 164.13 C 128.97 164.49 132.99 164.50 137.01 164.44 C 166.02 164.40 195.03 164.47 224.04 164.40 C 225.75 164.32 227.31 165.09 228.87 165.71 C 222.34 173.18 215.33 180.24 207.88 186.79 C 183.46 207.96 154.93 225.05 123.59 233.56 C 107.55 237.66 90.17 239.84 74.14 234.59 C 63.72 231.28 54.64 223.16 51.70 212.43 C 50.12 225.18 51.40 238.76 58.00 250.01 C 65.86 263.90 80.74 272.51 96.11 275.49 C 119.96 280.08 144.63 275.40 167.10 267.01 C 199.43 254.70 228.64 234.47 252.04 209.03 C 270.29 188.83 285.61 164.63 290.10 137.38 Z" />
<path fill="#ededed" d=" M 0.00 283.82 C 0.47 286.58 0.79 289.36 1.18 292.14 C 4.18 308.82 14.87 323.94 29.69 332.21 C 37.97 337.12 47.50 339.17 56.99 340.00 L 0.00 340.00 L 0.00 283.82 Z" />
<path fill="#ededed" d=" M 330.75 312.75 C 336.32 304.23 338.96 294.21 340.00 284.18 L 340.00 340.00 L 283.11 340.00 C 284.36 339.79 285.62 339.61 286.89 339.47 C 304.61 338.10 321.36 327.82 330.75 312.75 Z" />
</svg>
